# xmcd
#
# Track frame offsets:
#	150
#	12972
#	25690
#	36440
#	48607
#	61577
#	76362
#	88537
#	99895
#	111945
#	123295
#	135997
#	147175
#	158000
#	169000
#	180435
#	193340
#	204127
#	214602
#	226132
#	237877
#	249392
#	259040
#	272402
#	282197
#	292847
#
# Disc length: 4065 seconds
#
# Revision: 1
# Processed by: cddbd v1.5.2PL0 Copyright (c) Steve Scherf et al.
# Submitted via: EasyCDDAExtractor 10.2.0.1
#
DISCID=500fdf1a
DTITLE=Flatt and Scruggs - Foggy Mountain Gospel CD 1 (2005)
DYEAR=1900
DGENRE=Gospel
TTITLE0=I'm Working On A Road
TTITLE1=He Took Your Place
TTITLE2=Get In Line Brother
TTITLE3=Brother, I'm Getting Ready To Go
TTITLE4=Reunion In Heaven
TTITLE5=Mother Prays Loud In Her Sleep
TTITLE6=Be Ready For Tomorrow May Never Come
TTITLE7=You Can Feel It In Your Soul
TTITLE8=The Old Fashioned Preacher
TTITLE9=It Won't Be Long
TTITLE10=No Mother in This World Today
TTITLE11=Gone Home
TTITLE12=Bubbling In My Soul
TTITLE13=Joy Bells (new transfer)
TTITLE14=Who Will Sing For Me (new transfer)
TTITLE15=Give Mother My Crown
TTITLE16=Give Me The Flowers (While I'm Living)
TTITLE17=Is There Room For Me
TTITLE18=A Million Years In Glory
TTITLE19=Heaven
TTITLE20=Building On Sand
TTITLE21=Jesus Savior Pilot Me
TTITLE22=He Will Set Your Fields On Fire
TTITLE23=Let The Church Roll On
TTITLE24=Paul And Silas
TTITLE25=No Hiding Place Down Here
EXTD=
EXTT0=
EXTT1=
EXTT2=
EXTT3=
EXTT4=
EXTT5=
EXTT6=
EXTT7=
EXTT8=
EXTT9=
EXTT10=
EXTT11=
EXTT12=
EXTT13=
EXTT14=
EXTT15=
EXTT16=
EXTT17=
EXTT18=
EXTT19=
EXTT20=
EXTT21=
EXTT22=
EXTT23=
EXTT24=
EXTT25=
PLAYORDER=
